<?xml version="1.0" encoding="UTF-8"?>
<svg width="197" height="33" fill="none" version="1.1" viewBox="0 0 197 33" xmlns="http://www.w3.org/2000/svg">
 <g fill="#000">
  <path d="m58.87 11.09v4.4952h8.8559v3.8841h-8.8559v7.1584h-5.0215v-19.423h14.64v3.8856z" clip-path="url(#clipPath24)"/>
  <path d="m73.706 26.628v-19.423h5.0215v19.423z" clip-path="url(#clipPath23)"/>
  <path d="m99.286 26.628-9.0809-11.958v11.958h-4.7108v-19.423h4.4287l9.1094 11.986v-11.986h4.6825v19.423z" clip-path="url(#clipPath22)"/>
  <path d="m48.847 20.107c0 4.135-2.6233 6.5207-6.8254 6.5207-2.7929 0-5.0484-1.1383-6.7984-3.1076l2.3143-3.3024c1.4091 1.4438 2.9894 2.1642 4.1449 2.1642 1.3267 0 2.1161-0.8046 2.1161-2.3856l0.019-13.04h5.0295z" clip-path="url(#clipPath21)"/>
  <path d="m124.81 10.312-1.886 2.3154c-1.395-1.4812-3.392-2.3949-5.334-2.3949-3.83 0-6.838 2.9048-6.838 6.6189s3.011 6.6454 6.838 6.6454c1.915 0 3.883-0.8607 5.334-2.2328l1.914 2.0987c-1.941 1.8836-4.704 3.0935-7.413 3.0935-5.606 0-9.961-4.1693-9.961-9.5845 0-5.3544 4.404-9.4708 10.066-9.4708 2.717 0.01334 5.324 1.0559 7.28 2.9111z" clip-path="url(#clipPath20)"/>
  <path d="m142.14 26.322v-7.7962h-10.145v7.7962h-3.23v-18.835h3.227v8.1813h10.144v-8.1813h3.228v18.835z" clip-path="url(#clipPath19)"/>
  <path d="m153.75 22.072-1.833 4.2505h-3.362l8.454-18.835h3.309l8.37 18.835h-3.446l-1.833-4.2505zm4.814-11.194-3.611 8.3684h7.221z" clip-path="url(#clipPath18)"/>
  <path d="m171.62 26.322v-18.835h3.229v18.835z" clip-path="url(#clipPath17)"/>
  <path d="m193.83 26.322-10.204-13.504v13.508h-3.227v-18.839h3.17l10.257 13.536v-13.536h3.171v18.835z" clip-path="url(#clipPath16)"/>
 </g>
 <path d="m10.319 31.393c3.3532 1.2881 7.0466 1.443 10.499 0.4401 3.4524-1.0028 6.4679-3.1063 8.5719-5.9796s3.1771-6.3531 3.0504-9.892-1.446-6.9359-3.7502-9.6565c-0.1436-0.17583-0.3214-0.32176-0.5229-0.42926-0.2016-0.1075-0.4229-0.17443-0.651-0.19687-0.2282-0.02244-0.4586 5e-5 -0.6778 0.06616-0.2192 0.06612-0.4228 0.17453-0.599 0.31891-0.1761 0.14437-0.3213 0.32183-0.4269 0.52199-0.1057 0.20016-0.1698 0.41903-0.1885 0.64382-0.0187 0.22478 0.0083 0.45099 0.0794 0.6654 0.0711 0.21442 0.185 0.41275 0.3349 0.58341 1.8212 2.148 2.8618 4.8325 2.9567 7.628 0.095 2.7955-0.7611 5.5423-2.4326 7.8051-1.6715 2.2629-4.0628 3.9123-6.795 4.6871-2.7322 0.7747-5.6492 0.6305-8.2886-0.4099-2.6395-1.0404-4.8506-2.9175-6.2829-5.3338-1.4324-2.4163-2.0041-5.2337-1.6246-8.0057 0.37948-2.7721 1.6885-5.3404 3.7196-7.2979s4.6682-3.1924 7.4934-3.5089c0.445-0.06247 0.8477-0.29328 1.1225-0.64332 0.2747-0.35005 0.3997-0.79172 0.3485-1.2311-0.0512-0.43935-0.2746-0.84171-0.6227-1.1215-0.3482-0.2798-0.7935-0.41496-1.2414-0.37672-2.931 0.32706-5.7156 1.4352-8.0534 3.2047-2.3378 1.7696-4.14 4.1335-5.2122 6.8367-1.5687 3.9418-1.4814 8.3351 0.24269 12.214 1.7241 3.8785 4.9437 6.9245 8.9508 8.468z" clip-path="url(#clipPath15)" fill="#c60000"/>
 <path d="m19.466 4.9968c0.3751 0.36702 0.8524 0.61636 1.3715 0.71645 0.5192 0.1001 1.0569 0.04646 1.545-0.15413 0.4882-0.20059 0.9049-0.53911 1.1974-0.97273 0.2926-0.43362 0.4478-0.94285 0.446-1.4633s-0.1605-1.0286-0.4559-1.4603c-0.2955-0.43168-0.7145-0.76745-1.204-0.96481-0.4896-0.19736-1.0276-0.24745-1.5461-0.14393-0.5184 0.10352-0.994 0.356-1.3666 0.72549l-0.0143 0.01403c-0.2456 0.24475-0.4399 0.53475-0.5715 0.85341s-0.1981 0.65972-0.1956 1.0037 0.0739 0.68405 0.2102 1.0008c0.1362 0.31677 0.3347 0.604 0.5839 0.84527z" clip-path="url(#clipPath14)" fill="#c60000"/>
 <path d="m19.01 6.9006h4.9439v12.998c0 2.0862-0.726 3.8279-2.1478 5.1703-1.4519 1.3425-3.3112 2.027-5.5478 2.027-2.2651 0-4.1212-0.686-5.5747-2.027-1.4535-1.3409-2.1779-3.0841-2.1779-5.1703v-0.6565h4.9137v0.828c0 1.5997 1.1619 2.685 2.8167 2.685s2.7882-1.0915 2.7882-2.685v-8.8876z" clip-path="url(#clipPath13)" fill="#000"/>
 <defs>
  <clipPath id="clipPath13">
   <rect y=".5" width="197" height="32" fill="#fff"/>
  </clipPath>
  <clipPath id="clipPath14">
   <rect y=".5" width="197" height="32" fill="#fff"/>
  </clipPath>
  <clipPath id="clipPath15">
   <rect y=".5" width="197" height="32" fill="#fff"/>
  </clipPath>
  <clipPath id="clipPath16">
   <rect y=".5" width="197" height="32" fill="#fff"/>
  </clipPath>
  <clipPath id="clipPath17">
   <rect y=".5" width="197" height="32" fill="#fff"/>
  </clipPath>
  <clipPath id="clipPath18">
   <rect y=".5" width="197" height="32" fill="#fff"/>
  </clipPath>
  <clipPath id="clipPath19">
   <rect y=".5" width="197" height="32" fill="#fff"/>
  </clipPath>
  <clipPath id="clipPath20">
   <rect y=".5" width="197" height="32" fill="#fff"/>
  </clipPath>
  <clipPath id="clipPath21">
   <rect y=".5" width="197" height="32" fill="#fff"/>
  </clipPath>
  <clipPath id="clipPath22">
   <rect y=".5" width="197" height="32" fill="#fff"/>
  </clipPath>
  <clipPath id="clipPath23">
   <rect y=".5" width="197" height="32" fill="#fff"/>
  </clipPath>
  <clipPath id="clipPath24">
   <rect y=".5" width="197" height="32" fill="#fff"/>
  </clipPath>
 </defs>
</svg>
